External Loads File
version=1
nRows=95
nColumns=13
Range=5.000000e-03-10 seconds
endheader
time 	forceRightX 	forceRightY 	forceRightZ 	pointRightX 	pointRightY 	pointRightZ 	forceLeftX 	forceLeftY 	forceLeftZ 	pointLeftX 	pointLeftY 	pointLeftZ 		
0.005000 11.262682 136.901180 -0.000000 0.427499 0.456839 -0.195207 -2.922345 168.210739 -0.000000 0.206716 0.205120 -0.440537
0.010000 10.875789 137.189041 -0.000000 0.427464 0.456860 -0.195194 -3.912237 166.824028 -0.000000 0.206772 0.205108 -0.440538
0.015000 10.512006 137.450450 -0.000000 0.427437 0.456872 -0.195189 -4.905584 165.437782 -0.000000 0.206834 0.205077 -0.440546
0.020000 10.137316 137.683648 -0.000000 0.427330 0.456875 -0.195147 -5.990489 164.037308 -0.000000 0.206911 0.204927 -0.440560
0.025000 9.729863 137.890821 -0.000000 0.427114 0.457346 -0.195002 -7.191024 162.632962 -0.000000 0.206937 0.204993 -0.440438
0.030000 9.513602 138.058195 -0.000000 0.427085 0.457402 -0.195004 -8.209935 161.266033 -0.000000 0.206981 0.204992 -0.440414
0.035000 9.347826 138.196286 -0.000000 0.427080 0.457429 -0.195016 -9.137350 160.002988 -0.000000 0.207014 0.204990 -0.440410
0.040000 9.212074 138.305854 -0.000000 0.427076 0.457429 -0.195017 -9.895244 158.942034 -0.000000 0.207040 0.205004 -0.440386
0.045000 9.083907 138.386882 -0.000000 0.427095 0.457444 -0.195018 -10.431722 158.161544 -0.000000 0.207057 0.205006 -0.440366
0.050000 8.964200 138.431857 -0.000000 0.427120 0.457432 -0.195021 -10.698343 157.714839 -0.000000 0.207055 0.205009 -0.440375
0.055000 8.824624 138.430044 -0.000000 0.427145 0.457433 -0.195036 -10.697308 157.625613 -0.000000 0.207057 0.205033 -0.440378
0.060000 8.659727 138.374961 -0.000000 0.427174 0.457419 -0.195040 -10.440717 157.864472 -0.000000 0.207036 0.205049 -0.440364
0.065000 8.460895 138.270240 -0.000000 0.427211 0.457410 -0.195028 -9.990225 158.343218 -0.000000 0.206997 0.205083 -0.440376
0.070000 8.217110 138.130052 -0.000000 0.427248 0.457401 -0.195028 -9.442547 158.946960 -0.000000 0.206953 0.205104 -0.440379
0.075000 7.958595 137.979996 -0.000000 0.427284 0.457387 -0.195027 -8.870820 159.569326 -0.000000 0.206896 0.205137 -0.440383
0.080000 7.712829 137.848615 -0.000000 0.427325 0.457374 -0.195030 -8.348256 160.135849 -0.000000 0.206834 0.205189 -0.440407
0.085000 7.484834 137.748700 -0.000000 0.427359 0.457359 -0.195029 -7.928612 160.620228 -0.000000 0.206766 0.205213 -0.440387
0.090000 7.274961 137.677787 -0.000000 0.427375 0.457365 -0.195024 -7.629310 161.029699 -0.000000 0.206703 0.205232 -0.440387
0.095000 7.111346 137.637600 -0.000000 0.427394 0.457345 -0.195036 -7.435590 161.373736 -0.000000 0.206656 0.205250 -0.440388
0.100000 6.997362 137.647857 -0.000000 0.427393 0.457339 -0.195041 -7.361538 161.666101 -0.000000 0.206611 0.205253 -0.440383
0.105000 6.964053 137.724119 -0.000000 0.427397 0.457352 -0.195040 -7.337372 161.958276 -0.000000 0.206570 0.205276 -0.440369
0.110000 6.970082 137.852550 -0.000000 0.427377 0.457332 -0.195031 -7.312215 162.316003 -0.000000 0.206555 0.205258 -0.440354
0.115000 6.968774 137.991630 -0.000000 0.427356 0.457348 -0.195041 -7.225624 162.776179 -0.000000 0.206547 0.205254 -0.440357
0.120000 6.918525 138.111545 -0.000000 0.427328 0.457366 -0.195033 -7.039019 163.350130 -0.000000 0.206546 0.205257 -0.440341
0.125000 6.802460 138.218987 -0.000000 0.427312 0.457370 -0.195046 -6.739677 164.038716 -0.000000 0.206568 0.205244 -0.440360
0.130000 6.637164 138.348339 -0.000000 0.427273 0.457400 -0.195034 -6.365668 164.809797 -0.000000 0.206598 0.205228 -0.440343
0.135000 6.492921 138.534335 -0.000000 0.427241 0.457404 -0.195037 -5.958373 165.600788 -0.000000 0.206652 0.205197 -0.440357
0.140000 6.423565 138.792461 -0.000000 0.427199 0.457425 -0.195045 -5.569461 166.340993 -0.000000 0.206685 0.205175 -0.440346
0.145000 6.445474 139.115865 -0.000000 0.427168 0.457425 -0.195026 -5.268347 166.934740 -0.000000 0.206759 0.205146 -0.440377
0.150000 6.572518 139.482134 -0.000000 0.427135 0.457445 -0.195023 -5.116584 167.257392 -0.000000 0.206801 0.205127 -0.440371
0.155000 6.783216 139.859136 -0.000000 0.427117 0.457443 -0.195040 -5.176453 167.209503 -0.000000 0.206858 0.205114 -0.440361
0.160000 7.022735 140.207470 -0.000000 0.427111 0.457435 -0.195038 -5.484495 166.749197 -0.000000 0.206922 0.205083 -0.440355
0.165000 7.256209 140.486739 -0.000000 0.427116 0.457426 -0.195047 -6.009845 165.882431 -0.000000 0.206957 0.205084 -0.440360
0.170000 7.419155 140.669596 -0.000000 0.427132 0.457436 -0.195042 -6.730662 164.673449 -0.000000 0.206986 0.205090 -0.440350
0.175000 7.486417 140.743022 -0.000000 0.427147 0.457437 -0.195043 -7.567365 163.254188 -0.000000 0.207017 0.205076 -0.440337
0.180000 7.489747 140.700287 -0.000000 0.427167 0.457415 -0.195049 -8.394652 161.783949 -0.000000 0.207024 0.205103 -0.440356
0.185000 7.404346 140.540730 -0.000000 0.427191 0.457414 -0.195025 -9.172868 160.411669 -0.000000 0.207029 0.205120 -0.440354
0.190000 7.264329 140.274257 -0.000000 0.427240 0.457398 -0.195039 -9.791476 159.281748 -0.000000 0.207011 0.205113 -0.440348
0.195000 7.074019 139.936355 -0.000000 0.427267 0.457387 -0.195051 -10.189665 158.504921 -0.000000 0.206991 0.205127 -0.440346
0.200000 6.875210 139.571904 -0.000000 0.427295 0.457367 -0.195045 -10.302572 158.138143 -0.000000 0.206943 0.205154 -0.440355
0.205000 6.676736 139.221129 -0.000000 0.427338 0.457373 -0.195054 -10.115875 158.205590 -0.000000 0.206895 0.205189 -0.440374
0.210000 6.510658 138.914511 -0.000000 0.427382 0.457344 -0.195062 -9.595691 158.717734 -0.000000 0.206844 0.205213 -0.440379
0.215000 6.384039 138.678577 -0.000000 0.427412 0.457322 -0.195054 -8.780401 159.637669 -0.000000 0.206795 0.205251 -0.440385
0.220000 6.291909 138.532634 -0.000000 0.427428 0.457339 -0.195050 -7.759703 160.883146 -0.000000 0.206734 0.205253 -0.440393
0.225000 6.265558 138.481655 -0.000000 0.427452 0.457322 -0.195071 -6.574599 162.359518 -0.000000 0.206692 0.205289 -0.440369
0.230000 6.245577 138.523006 -0.000000 0.427457 0.457325 -0.195058 -5.364759 163.949613 -0.000000 0.206653 0.205284 -0.440369
0.235000 6.224169 138.644831 -0.000000 0.427445 0.457333 -0.195051 -4.218996 165.523370 -0.000000 0.206624 0.205287 -0.440380
0.240000 6.187179 138.829353 -0.000000 0.427434 0.457342 -0.195054 -3.231261 166.969717 -0.000000 0.206590 0.205274 -0.440371
0.245000 6.129890 139.052869 -0.000000 0.427422 0.457342 -0.195059 -2.487157 168.198387 -0.000000 0.206594 0.205274 -0.440373
0.250000 6.063293 139.293636 -0.000000 0.427401 0.457359 -0.195059 -2.069771 169.114146 -0.000000 0.206587 0.205246 -0.440357
0.255000 6.018067 139.537389 -0.000000 0.427378 0.457371 -0.195044 -2.021374 169.631267 -0.000000 0.206614 0.205252 -0.440369
0.260000 5.995763 139.777541 -0.000000 0.427348 0.457390 -0.195050 -2.372112 169.693507 -0.000000 0.206631 0.205210 -0.440367
0.265000 6.034444 140.009240 -0.000000 0.427317 0.457390 -0.195039 -3.072251 169.273317 -0.000000 0.206676 0.205209 -0.440360
0.270000 6.112118 140.227104 -0.000000 0.427259 0.457421 -0.195039 -4.096297 168.394095 -0.000000 0.206719 0.205184 -0.440356
0.275000 6.257671 140.418464 -0.000000 0.427241 0.457436 -0.195045 -5.289087 167.151932 -0.000000 0.206776 0.205160 -0.440359
0.280000 6.432258 140.577517 -0.000000 0.427212 0.457447 -0.195047 -6.554937 165.665549 -0.000000 0.206831 0.205130 -0.440368
0.285000 6.614472 140.705545 -0.000000 0.427178 0.457462 -0.195047 -7.798999 164.035144 -0.000000 0.206872 0.205112 -0.440355
0.290000 6.764105 140.806378 -0.000000 0.427171 0.457476 -0.195044 -8.956526 162.359692 -0.000000 0.206919 0.205071 -0.440358
0.295000 6.860098 140.876706 -0.000000 0.427171 0.457478 -0.195051 -9.952339 160.747562 -0.000000 0.206953 0.205062 -0.440359
0.300000 6.868171 140.905121 -0.000000 0.427176 0.457483 -0.195065 -10.767773 159.295794 -0.000000 0.206969 0.205054 -0.440375
0.305000 6.810842 140.880126 -0.000000 0.427206 0.457464 -0.195063 -11.354600 158.098157 -0.000000 0.206972 0.205076 -0.440370
0.310000 6.678343 140.807226 -0.000000 0.427220 0.457460 -0.195054 -11.723176 157.231735 -0.000000 0.206965 0.205082 -0.440370
0.315000 6.530448 140.700733 -0.000000 0.427262 0.457456 -0.195062 -11.836394 156.732978 -0.000000 0.206956 0.205094 -0.440366
0.320000 6.388483 140.579335 -0.000000 0.427288 0.457450 -0.195064 -11.718842 156.590687 -0.000000 0.206930 0.205105 -0.440393
0.325000 6.288292 140.455522 -0.000000 0.427318 0.457434 -0.195068 -11.372578 156.778159 -0.000000 0.206894 0.205144 -0.440385
0.330000 6.211014 140.331774 -0.000000 0.427350 0.457432 -0.195053 -10.850187 157.257451 -0.000000 0.206848 0.205169 -0.440387
0.335000 6.148404 140.206847 -0.000000 0.427394 0.457411 -0.195071 -10.186187 157.990782 -0.000000 0.206814 0.205178 -0.440394
0.340000 6.089963 140.101598 -0.000000 0.427419 0.457399 -0.195072 -9.430225 158.938432 -0.000000 0.206778 0.205183 -0.440398
0.345000 6.080007 140.059303 -0.000000 0.427434 0.457378 -0.195060 -8.602210 160.049341 -0.000000 0.206720 0.205215 -0.440379
0.350000 6.110147 140.117635 -0.000000 0.427453 0.457376 -0.195053 -7.776697 161.269485 -0.000000 0.206680 0.205230 -0.440383
0.355000 6.176798 140.277809 -0.000000 0.427459 0.457385 -0.195055 -6.973816 162.567726 -0.000000 0.206650 0.205245 -0.440384
0.360000 6.270902 140.506648 -0.000000 0.427461 0.457369 -0.195050 -6.200094 163.910934 -0.000000 0.206623 0.205246 -0.440396
0.365000 6.370351 140.758586 -0.000000 0.427460 0.457376 -0.195051 -5.493862 165.241120 -0.000000 0.206593 0.205249 -0.440383
0.370000 6.440194 140.999097 -0.000000 0.427430 0.457398 -0.195048 -4.911710 166.492797 -0.000000 0.206602 0.205233 -0.440385
0.375000 6.517569 141.207529 -0.000000 0.427413 0.457405 -0.195051 -4.408360 167.615876 -0.000000 0.206600 0.205215 -0.440370
0.380000 6.569470 141.372158 -0.000000 0.427377 0.457407 -0.195048 -3.998106 168.577683 -0.000000 0.206628 0.205190 -0.440378
0.385000 6.611312 141.475327 -0.000000 0.427340 0.457427 -0.195043 -3.627176 169.362232 -0.000000 0.206647 0.205192 -0.440366
0.390000 6.620146 141.504164 -0.000000 0.427299 0.457443 -0.195046 -3.319057 169.943943 -0.000000 0.206698 0.205165 -0.440381
0.395000 6.628987 141.460797 -0.000000 0.427255 0.457457 -0.195045 -3.087431 170.279176 -0.000000 0.206749 0.205151 -0.440371
0.400000 6.630895 141.370894 -0.000000 0.427222 0.457495 -0.195052 -3.017659 170.328704 -0.000000 0.206806 0.205083 -0.440373
0.405000 6.671854 141.265042 -0.000000 0.427181 0.457509 -0.195056 -3.106381 170.074009 -0.000000 0.206865 0.205064 -0.440379
0.410000 6.720497 141.167978 -0.000000 0.427138 0.457508 -0.195051 -3.400535 169.507218 -0.000000 0.206918 0.205025 -0.440361
0.415000 6.759341 141.089688 -0.000000 0.427112 0.457534 -0.195056 -3.884743 168.654505 -0.000000 0.206960 0.205016 -0.440358
0.420000 6.766016 141.029410 -0.000000 0.427099 0.457535 -0.195031 -4.515963 167.589171 -0.000000 0.207000 0.205004 -0.440346
0.425000 6.726053 140.978648 -0.000000 0.427086 0.457530 -0.195041 -5.244173 166.390965 -0.000000 0.207024 0.204986 -0.440344
0.430000 6.656261 140.921662 -0.000000 0.427104 0.457532 -0.195043 -5.998814 165.128927 -0.000000 0.207034 0.205002 -0.440365
0.435000 6.555436 140.846091 -0.000000 0.427114 0.457515 -0.195039 -6.733888 163.885954 -0.000000 0.207024 0.205010 -0.440355
0.440000 6.448734 140.752796 -0.000000 0.427146 0.457496 -0.195054 -7.385989 162.750632 -0.000000 0.207016 0.205022 -0.440355
0.445000 6.341752 140.653450 -0.000000 0.427151 0.457487 -0.195055 -7.928044 161.794115 -0.000000 0.206992 0.205032 -0.440372
0.450000 6.251509 140.559044 -0.000000 0.427175 0.457486 -0.195044 -8.301428 161.084643 -0.000000 0.206958 0.205038 -0.440368
0.455000 6.182740 140.485628 -0.000000 0.427213 0.457473 -0.195062 -8.458317 160.669652 -0.000000 0.206925 0.205088 -0.440365
0.460000 6.096309 140.459919 -0.000000 0.427229 0.457456 -0.195054 -8.443808 160.541581 -0.000000 0.206877 0.205104 -0.440377
0.465000 5.995786 140.502176 -0.000000 0.427254 0.457455 -0.195040 -8.289665 160.669117 -0.000000 0.206846 0.205112 -0.440380
0.470000 5.911243 140.607791 -0.000000 0.427272 0.457442 -0.195033 -8.008028 161.025476 -0.000000 0.206792 0.205134 -0.440369
0.475000 5.825333 140.748332 -0.000000 0.427296 0.457441 -0.195031 -7.672959 161.572130 -0.000000 0.206769 0.205139 -0.440375
